# xmcd
#
# Track frame offsets:
# 150
# 15058
# 27099
# 38330
# 50823
# 58200
# 71150
# 86774
# 102421
# 111183
# 127347
# 146455
# 163556
# 178488
# 193162
# 201489
# 213675
# 226825
#
# Disc length: 3189 seconds
#
#
# Revision: 2
# Processed by: cddbd v1.5.1PL0 Copyright (c) Steve Scherf et al.
# Submitted via: FreeRIP 2.51 
#
DISCID=0f0c7312
DTITLE=Gipsy Swing - Dutch Jazz Giants Vol 7
DYEAR=1999
DGENRE=Jazz
TTITLE0=Fapy Lafertin Quartet - Take The "A" Train
TTITLE1=Fapy Lafertin Quartet - Maria Elena
TTITLE2=The Gipsy Boys - Hänchi Swing
TTITLE3=The Gipsy Boys -Caravan
TTITLE4=Armando and The Gipsy Boys - Lady Be Good
TTITLE5=Armando and The Gipsy Boys - All Of Me
TTITLE6=Carmen Sars and The Rosenberg Trio - In Love
TTITLE7=Basily - I Can't Give You Anything But Love
TTITLE8=Basily - Twelve Years
TTITLE9=Basily - Minor Swing
TTITLE10=The Robin Nolan Swing Quartet - Bossa Dorado
TTITLE11=The Robin Nolan Swing Quartet - Honeysuckle Rose
TTITLE12=Fapy Lafertin Quartet - J'Attendrai
TTITLE13=Fapy Lafertin Quartet - Fleur De Lavande
TTITLE14=The Gipsy Boys - Valse Bamboula
TTITLE15=The Gipsy Boys - Cherokee
TTITLE16=The Gipsy Boys - Ola, Manoir De Mes Rêves
TTITLE17=The Gipsy Boys - Django's Theme
EXTD=YEAR: 1999
EXTT0=
EXTT1=
EXTT2=
EXTT3=
EXTT4=
EXTT5=
EXTT6=
EXTT7=
EXTT8=
EXTT9=
EXTT10=
EXTT11=
EXTT12=
EXTT13=
EXTT14=
EXTT15=
EXTT16=
EXTT17=
PLAYORDER=
